<svg width="50" height="50" viewBox="0 0 50 50" fill="none" xmlns="http://www.w3.org/2000/svg">
<path d="M23.4744 7.19691H30.5956C30.8986 7.19691 31.2016 6.96964 31.2016 6.59085C31.2016 6.21206 30.8986 6.06055 30.5956 6.06055H23.4744C23.1713 6.06055 22.8683 6.28782 22.8683 6.66661C22.9441 6.96964 23.1713 7.19691 23.4744 7.19691ZM5.82286 11.8181H12.9441C13.2471 11.8181 13.5501 11.5909 13.5501 11.2121C13.5501 10.8333 13.3229 10.606 12.9441 10.606H5.82286C5.51983 10.606 5.2168 10.8333 5.2168 11.2121C5.2168 11.5909 5.44407 11.8181 5.82286 11.8181ZM5.82286 16.3636H30.5956C30.8986 16.3636 31.2016 16.1363 31.2016 15.7575C31.2016 15.3787 30.9744 15.1515 30.5956 15.1515H5.82286C5.51983 15.1515 5.2168 15.3787 5.2168 15.7575C5.2168 16.1363 5.44407 16.3636 5.82286 16.3636ZM5.82286 20.9848H30.5956C30.8986 20.9848 31.2016 20.7575 31.2016 20.3787C31.2016 19.9999 30.9744 19.7727 30.5956 19.7727H5.82286C5.51983 19.7727 5.2168 19.9999 5.2168 20.3787C5.2168 20.7575 5.44407 20.9848 5.82286 20.9848ZM5.82286 25.6818H30.5956C30.8986 25.6818 31.2016 25.4545 31.2016 25.0757C31.2016 24.6969 30.8986 24.4696 30.5956 24.4696H5.82286C5.51983 24.4696 5.2168 24.6969 5.2168 25.0757C5.2168 25.4545 5.44407 25.6818 5.82286 25.6818ZM44.535 10.7575L42.4895 9.69691C42.1865 9.5454 41.8835 9.69691 41.7319 9.92418L40.6713 11.9696C40.5198 12.2727 40.6713 12.5757 40.8986 12.7272L42.9441 13.7878C43.2471 13.9393 43.5501 13.7878 43.7016 13.5605L44.7622 11.5151C44.9138 11.2121 44.838 10.909 44.535 10.7575ZM42.9441 12.5757L41.8835 12.0454L42.4138 10.9848L43.4744 11.5151L42.9441 12.5757ZM42.035 15.6818L39.9895 14.6212C39.6865 14.4696 39.3835 14.6212 39.2319 14.8484L38.1713 16.8939C38.0198 17.1969 38.1713 17.4999 38.3986 17.6515L40.4441 18.7121C40.7471 18.8636 41.0501 18.7121 41.2016 18.4848L42.2622 16.4393C42.4138 16.1363 42.338 15.8333 42.035 15.6818ZM40.5198 17.4999L39.4592 16.9696L39.9895 15.909L41.0501 16.4393L40.5198 17.4999ZM39.535 20.606L37.4895 19.5454C37.1865 19.3939 36.8835 19.5454 36.7319 19.7727L35.6713 21.8181C35.5198 22.1212 35.6713 22.4242 35.8986 22.5757L37.9441 23.6363C38.2471 23.7878 38.5501 23.6363 38.7016 23.409L39.7622 21.3636C39.9138 21.0605 39.838 20.7575 39.535 20.606ZM38.0198 22.4242L36.9592 21.8939L37.4895 20.8333L38.5501 21.3636L38.0198 22.4242Z" fill="#4461E0"/>
<path d="M49.0046 15C49.535 14.0151 49.2319 12.6515 47.944 12.0454L48.3228 11.2879C48.9289 10.0757 48.4743 8.56059 47.1865 7.95453L43.0956 5.90908C41.8834 5.30302 40.3683 5.75756 39.7622 7.04544L35.6713 15.1515V3.86362C35.6713 2.57574 34.6107 1.51514 33.3228 1.51514H3.09556C1.80768 1.51514 0.74707 2.57574 0.74707 3.86362V46.1363C0.74707 47.4242 1.80768 48.4848 3.09556 48.4848H33.2471C34.535 48.4848 35.5956 47.4242 35.5956 46.1363V33.4091L38.2471 28.1818L38.9289 28.5606C39.2319 28.7121 39.535 28.5606 39.6865 28.3333L47.4137 13.106C48.0956 13.4091 48.2471 14.0909 47.944 14.5454L45.6713 19.0909C44.9895 20.4545 45.5198 22.1212 46.8834 22.803C47.1865 22.8788 47.4895 22.803 47.641 22.5C47.7925 22.197 47.641 21.8939 47.4137 21.7424C46.6562 21.3636 46.2774 20.3788 46.7319 19.5454L49.0046 15ZM34.4592 46.3636C34.4592 47.0454 33.9289 47.5757 33.2471 47.5757H3.09556C2.41374 47.5757 1.88343 47.0454 1.88343 46.3636V3.86362C1.88343 3.1818 2.41374 2.6515 3.09556 2.6515H33.2471C33.9289 2.6515 34.4592 3.1818 34.4592 3.86362V17.3485L31.1259 23.9394C30.9743 24.2424 31.1259 24.5454 31.3531 24.697L32.035 25.0757L30.141 29.0151H5.82283C5.5198 29.0151 5.21677 29.2424 5.21677 29.6212C5.21677 30 5.44404 30.2273 5.82283 30.2273H29.535L27.7925 33.7121H5.82283C5.5198 33.7121 5.21677 33.9394 5.21677 34.3182C5.21677 34.697 5.44404 34.9242 5.82283 34.9242H27.2622L25.5198 38.4091H5.82283C5.5198 38.4091 5.21677 38.6363 5.21677 39.0151C5.21677 39.3939 5.44404 39.6212 5.82283 39.6212H25.2168L25.9743 43.9394L25.5251 44.797C25.0728 44.2136 24.3289 43.5273 23.4213 43.7288C22.4289 43.9757 21.9175 44.528 21.5069 44.9704C21.0675 45.4447 20.7766 45.7576 19.9895 45.7576C19.0857 45.7576 18.8433 45.0076 18.6122 43.2151C18.4539 41.9924 18.2751 40.606 17.035 40.606C15.035 40.606 13.3077 44.6704 12.9819 45.4848C12.9297 45.6154 12.9315 45.7614 12.9869 45.8907C13.0423 46.02 13.1468 46.122 13.2774 46.1742C13.408 46.2265 13.554 46.2247 13.6833 46.1693C13.8125 46.1139 13.9145 46.0094 13.9668 45.8788C14.6471 44.1803 16.0925 41.6667 17.035 41.6667C17.3425 41.6667 17.463 42.6007 17.56 43.3507C17.7493 44.8144 18.0069 46.8182 19.9895 46.8182C21.2395 46.8182 21.7948 46.2197 22.285 45.6917C22.6637 45.2826 22.9918 44.9288 23.6615 44.7606C24.1546 44.653 24.8221 45.5697 25.0501 46.0038C25.1082 46.1091 25.2008 46.1912 25.3122 46.2364C25.3312 46.253 25.3471 46.2742 25.3683 46.2879C25.6713 46.4394 25.9743 46.2879 26.1259 46.0606L26.9592 44.4697L31.0501 42.4242L31.1259 42.3485C31.2016 42.2727 31.2774 42.2727 31.2774 42.197L34.4592 35.9091V46.3636ZM30.444 41.2121L26.9592 42.8788L26.2774 39.0909L33.0956 25.5303L37.2622 27.6515L30.444 41.2121ZM47.338 10.8333L46.7319 12.0454L39.0047 27.2727L32.4895 24.0151L35.6713 17.803L40.8228 7.57574C41.1259 6.89392 41.9592 6.66665 42.641 6.96968L46.7319 9.01514C47.4137 9.31817 47.641 10.1515 47.338 10.8333Z" fill="#4461E0"/>
</svg>
