<svg width="51" height="50" viewBox="0 0 51 50" fill="none" xmlns="http://www.w3.org/2000/svg">
<path d="M23.7006 12.5879H32.1097C32.4127 12.5879 32.7157 12.3606 32.7157 11.9819C32.7157 11.6031 32.4885 11.3758 32.1097 11.3758H23.7006C23.3976 11.3758 23.0945 11.6031 23.0945 11.9819C23.0945 12.3606 23.3218 12.5879 23.7006 12.5879ZM8.39756 24.725H32.337C32.64 24.725 32.943 24.4978 32.943 24.119C32.943 23.7402 32.7157 23.5129 32.337 23.5129H8.39756C8.09453 23.5129 7.7915 23.7402 7.7915 24.119C7.7915 24.4978 8.09453 24.725 8.39756 24.725ZM23.7006 18.6569H32.1097C32.4127 18.6569 32.7157 18.4296 32.7157 18.0508C32.7157 17.672 32.4885 17.4447 32.1097 17.4447H23.7006C23.3976 17.4447 23.0945 17.672 23.0945 18.0508C23.0945 18.4296 23.3218 18.6569 23.7006 18.6569ZM8.35969 18.6803H20.596C20.7467 18.6803 20.8913 18.6205 20.9978 18.5139C21.1044 18.4074 21.1642 18.2629 21.1642 18.1122V5.8758C21.1642 5.72511 21.1044 5.58059 20.9978 5.47403C20.8913 5.36748 20.7467 5.30762 20.596 5.30762H8.35969C8.20899 5.30762 8.06448 5.36748 7.95792 5.47403C7.85137 5.58059 7.7915 5.72511 7.7915 5.8758V18.1122C7.7915 18.4258 8.04605 18.6803 8.35969 18.6803ZM8.92787 6.44398H20.0279V17.544H8.92787V6.44398Z" fill="#4461E0"/>
<path d="M16.2151 11.6924C16.6403 11.2489 16.878 10.6584 16.8787 10.0439C16.8779 9.40747 16.6247 8.7973 16.1747 8.34724C15.7246 7.89718 15.1144 7.64399 14.478 7.64319C13.8413 7.64379 13.2309 7.89702 12.7808 8.34729C12.3307 8.79755 12.0776 9.40804 12.0772 10.0447C12.0772 10.6833 12.3325 11.2621 12.7416 11.6924C11.9405 12.034 11.2573 12.6032 10.7768 13.3295C10.2963 14.0558 10.0396 14.9072 10.0386 15.778C10.0386 15.9287 10.0984 16.0732 10.205 16.1798C10.3115 16.2864 10.4561 16.3462 10.6068 16.3462C10.7574 16.3462 10.902 16.2864 11.0085 16.1798C11.1151 16.0732 11.1749 15.9287 11.1749 15.778C11.1761 14.9024 11.5245 14.0629 12.1437 13.4438C12.7629 12.8246 13.6023 12.4762 14.478 12.475C15.3537 12.476 16.1934 12.8243 16.8127 13.4435C17.4321 14.0627 17.7806 14.9023 17.7818 15.778C17.7818 15.9287 17.8416 16.0732 17.9482 16.1798C18.0547 16.2864 18.1992 16.3462 18.3499 16.3462C18.5006 16.3462 18.6451 16.2864 18.7517 16.1798C18.8583 16.0732 18.9181 15.9287 18.9181 15.778C18.9171 14.9072 18.6604 14.0558 18.1799 13.3295C17.6994 12.6032 17.0162 12.034 16.2151 11.6924ZM14.478 11.3076C13.781 11.3076 13.2136 10.7402 13.2136 10.0432C13.2136 9.34622 13.7802 8.7788 14.4787 8.7788C15.1757 8.7788 15.7424 9.34698 15.7424 10.0439C15.7424 10.7409 15.1749 11.3076 14.478 11.3076Z" fill="#4461E0"/>
<path d="M46.8135 38.9038L44.9135 38.1788C44.9483 37.7508 44.9514 37.3258 44.9226 36.9069L46.7256 36.1061C46.802 36.0721 46.8709 36.0233 46.9285 35.9626C46.986 35.9019 47.031 35.8305 47.0609 35.7524C47.0908 35.6743 47.105 35.5911 47.1027 35.5075C47.1004 35.4239 47.0817 35.3415 47.0476 35.2652L45.2688 31.2978C45.2001 31.1444 45.0734 31.0246 44.9164 30.9646C44.7595 30.9045 44.5852 30.9091 44.4317 30.9773L42.768 31.7167C42.4506 31.3531 42.1052 31.0175 41.7355 30.7129L42.3703 29.0538C42.4001 28.9758 42.4142 28.8927 42.4118 28.8093C42.4094 28.7258 42.3907 28.6437 42.3565 28.5675C42.3224 28.4913 42.2736 28.4226 42.2129 28.3653C42.1523 28.3079 42.0809 28.2631 42.0029 28.2334L37.9377 26.6826C37.8599 26.653 37.777 26.639 37.6937 26.6415C37.6105 26.6439 37.5285 26.6627 37.4525 26.6968C37.3765 26.731 37.308 26.7797 37.2509 26.8403C37.1938 26.9009 37.1491 26.9722 37.1195 27.05L37.0339 27.272V9.85306C37.0339 9.70155 36.9582 9.62579 36.8824 9.55003C36.8067 9.47428 28.7006 1.29246 28.5491 1.2167C28.4733 1.14094 28.3218 1.06519 28.1703 1.06519H4.38243C4.0794 1.06519 3.77637 1.29246 3.77637 1.67125V43.2622C3.77637 43.5652 4.00364 43.8682 4.38243 43.8682H26.5999L26.7832 44.2735C26.8526 44.4264 26.9797 44.5455 27.1366 44.6051C27.2935 44.6647 27.4677 44.6599 27.6211 44.5917L29.8695 43.5864C30.0817 43.8031 30.3097 44.0122 30.5529 44.2122L29.6695 46.5213C29.6398 46.5992 29.6257 46.6823 29.6281 46.7658C29.6304 46.8492 29.6492 46.9314 29.6833 47.0076C29.7174 47.0838 29.7662 47.1525 29.8269 47.2098C29.8876 47.2672 29.959 47.312 30.037 47.3417L34.1021 48.8925C34.2594 48.9524 34.434 48.9475 34.5876 48.8789C34.7413 48.8104 34.8615 48.6836 34.9218 48.5266L35.8059 46.2167C36.1226 46.2303 36.4324 46.2266 36.7347 46.2061L37.7476 48.4561C37.8164 48.6093 37.9432 48.7289 38.1001 48.7888C38.257 48.8488 38.4313 48.8441 38.5847 48.7758L42.5552 47.0122C42.6317 46.9783 42.7007 46.9296 42.7583 46.8689C42.816 46.8083 42.861 46.7368 42.8909 46.6586C42.9207 46.5804 42.9348 46.4971 42.9323 46.4135C42.9298 46.3298 42.9108 46.2475 42.8764 46.1712L41.9332 44.0773C42.2036 43.8425 42.4567 43.5947 42.6892 43.3349L44.8105 44.1455C44.9683 44.2051 45.1433 44.1998 45.2973 44.1306C45.4512 44.0615 45.5714 43.9342 45.6317 43.7766L47.1809 39.7243C47.2108 39.6463 47.2249 39.5632 47.2226 39.4797C47.2203 39.3962 47.2016 39.314 47.1674 39.2378C47.1333 39.1616 47.0845 39.0929 47.0237 39.0356C46.963 38.9782 46.8916 38.9335 46.8135 38.9038ZM28.7764 3.03488L35.0642 9.32276H28.7764V3.03488ZM26.0817 42.7319H4.91273V2.20155H27.64V5.30761H23.7006C23.3976 5.30761 23.0945 5.53488 23.0945 5.91367C23.0945 6.29246 23.3218 6.51973 23.7006 6.51973H27.64V9.92882C27.64 10.2319 27.8673 10.5349 28.2461 10.5349C32.7915 10.5349 34.9127 10.6106 35.9733 10.5349V28.7099C35.6627 28.7159 35.3521 28.7319 35.0453 28.7705L34.3067 27.1167C34.2729 27.0406 34.2244 26.9719 34.164 26.9146C34.1036 26.8572 34.0324 26.8124 33.9547 26.7826C33.8769 26.7528 33.794 26.7387 33.7107 26.7411C33.6275 26.7434 33.5455 26.7622 33.4695 26.7962L29.487 28.5652C29.4105 28.5991 29.3415 28.6479 29.284 28.7086C29.2264 28.7693 29.1814 28.8407 29.1516 28.9189C29.1217 28.997 29.1076 29.0803 29.11 29.1639C29.1125 29.2475 29.1314 29.3298 29.1658 29.4061L29.2445 29.5811H8.39758C8.09455 29.5811 7.79152 29.8084 7.79152 30.1872C7.79152 30.5659 8.09455 30.7932 8.39758 30.7932H29.79L29.9741 31.2031C29.6718 31.497 29.3908 31.8167 29.1317 32.1584L27.2385 31.4372C27.0812 31.3772 26.9067 31.3821 26.753 31.4507C26.5993 31.5193 26.4792 31.646 26.4188 31.8031L24.9506 35.6417H8.39758C8.09455 35.6417 7.79152 35.869 7.79152 36.2478C7.79152 36.6266 8.09455 36.8538 8.39758 36.8538H25.7029L27.3476 37.4811C27.3483 37.8296 27.3711 38.1826 27.4158 38.5372L25.3142 39.4705C25.2378 39.5045 25.1688 39.5533 25.1112 39.6141C25.0536 39.6748 25.0086 39.7464 24.9788 39.8246C24.9489 39.9028 24.9348 39.9861 24.9373 40.0698C24.9397 40.1535 24.9587 40.2358 24.993 40.3122L26.087 42.7334L26.0817 42.7319ZM44.6711 42.7303L42.7226 41.9879C42.597 41.9394 42.4591 41.9324 42.3292 41.9678C42.1994 42.0033 42.0842 42.0793 42.0006 42.1849C41.6383 42.6353 41.2238 43.0412 40.7658 43.394C40.6531 43.4814 40.5732 43.6042 40.5388 43.7426C40.5044 43.881 40.5177 44.0269 40.5764 44.1569L41.4559 46.1114L38.6461 47.3599L37.7052 45.2697C37.6491 45.1449 37.5542 45.0416 37.4346 44.9751C37.315 44.9086 37.1771 44.8826 37.0415 44.9008C36.5112 44.9684 35.9748 44.9747 35.443 44.9197C35.3046 44.9069 35.1657 44.9395 35.0475 45.0126C34.9292 45.0857 34.838 45.1954 34.7877 45.325L33.9627 47.4826L31.0847 46.3849L31.9089 44.2288C31.9587 44.0987 31.9644 43.9558 31.9252 43.822C31.8859 43.6883 31.8038 43.5712 31.6915 43.4887C31.2581 43.176 30.8625 42.8139 30.5127 42.4099C30.4238 42.3058 30.3035 42.2333 30.1699 42.2034C30.0363 42.1735 29.8966 42.1877 29.7718 42.244L27.6832 43.1781L26.4165 40.375L28.3764 39.5046C28.5067 39.447 28.6138 39.3472 28.6804 39.2213C28.7471 39.0954 28.7694 38.9508 28.7438 38.8106C28.6386 38.2426 28.6004 37.6641 28.6302 37.0872C28.6377 36.9526 28.6021 36.8191 28.5287 36.7061C28.4553 36.593 28.3478 36.5063 28.2218 36.4584L26.2839 35.719L27.3802 32.8538L29.1385 33.5243C29.2729 33.5754 29.4206 33.5795 29.5577 33.5359C29.6947 33.4922 29.8129 33.4035 29.893 33.2841C30.248 32.7504 30.6736 32.2673 31.1582 31.8478C31.2623 31.7585 31.3346 31.6378 31.3642 31.504C31.3938 31.3701 31.3792 31.2302 31.3226 31.1053L30.587 29.472L33.4067 28.219L34.0847 29.7341C34.2036 30.0031 34.4938 30.1576 34.7779 30.1016C35.4608 29.9762 36.158 29.9466 36.8491 30.0137C36.9875 30.0269 37.1264 29.9944 37.2446 29.9212C37.3628 29.848 37.4538 29.7382 37.5036 29.6084L38.0794 28.1023L40.9574 29.2L40.3817 30.7053C40.3318 30.8356 40.3262 30.9787 40.3657 31.1125C40.4053 31.2463 40.4879 31.3633 40.6006 31.4455C41.1599 31.8559 41.6596 32.3418 42.0855 32.8894C42.1728 33.001 42.2949 33.0802 42.4325 33.1146C42.57 33.1489 42.715 33.1363 42.8445 33.0788L44.3703 32.4016L45.6294 35.2099L43.9892 35.9387C43.8641 35.9943 43.7603 36.0889 43.6934 36.2084C43.6265 36.3279 43.6 36.4658 43.618 36.6016C43.6991 37.2228 43.693 37.8667 43.6006 38.5152C43.5805 38.6575 43.6092 38.8024 43.6822 38.9263C43.7551 39.0502 43.8679 39.1456 44.0021 39.197L45.7688 39.8713L44.6711 42.7303Z" fill="#4461E0"/>
<path d="M38.2802 33.3605C35.7915 32.1666 32.9036 33.278 31.7779 35.6212C30.6158 38.0378 31.634 40.9416 34.0733 42.1136C36.5544 43.303 39.4408 42.1916 40.5711 39.8409C41.7317 37.4265 40.7067 34.5242 38.2802 33.3605ZM39.5476 39.3477C39.1158 40.2375 38.3492 40.9201 37.4155 41.2462C36.4817 41.5723 35.4569 41.5153 34.565 41.0878C32.7165 40.2015 31.9021 37.9863 32.8021 36.1136C33.6703 34.3075 35.8893 33.4742 37.7885 34.3848C39.6476 35.2772 40.4355 37.4992 39.5476 39.3477Z" fill="#4461E0"/>
</svg>
